<svg width="373" height="374" viewBox="0 0 373 374" fill="none" xmlns="http://www.w3.org/2000/svg">
<path d="M142.345 319.981L127.251 335.076C124.659 337.667 124.659 341.868 127.251 344.459L151.585 368.794C154.177 371.385 158.378 371.385 160.969 368.794L368.078 161.685C370.67 159.094 370.67 154.892 368.078 152.301L291.275 75.4981C290.599 74.8216 289.784 74.2994 288.887 73.9673L196.732 39.855C191.342 37.86 186.137 43.1938 188.264 48.5329L227.13 146.112C228.111 148.575 227.532 151.385 225.658 153.26L210.034 168.883C208.888 170.029 207.363 170.716 205.745 170.815L202.058 171.039C197.616 171.309 194.694 175.789 196.237 179.963L203.584 199.837C204.224 201.568 203.798 203.514 202.493 204.819C201.101 206.211 198.993 206.594 197.2 205.782L135.963 178.045C133.446 176.906 130.487 177.444 128.533 179.398L125.96 181.971C124.085 183.846 121.275 184.425 118.813 183.444L117.458 182.904C115.352 182.065 112.948 182.56 111.345 184.164C109.711 185.798 109.23 188.26 110.131 190.388L134.332 247.601C135.385 250.089 134.823 252.967 132.913 254.878L124.305 263.486C122.288 265.503 121.786 268.584 123.058 271.138L143.592 312.329C144.865 314.882 144.363 317.964 142.345 319.981Z" fill="url(#paint0_linear_0_479)"/>
<path d="M124.105 338.633L143.589 319.148C145.614 317.124 146.112 314.028 144.823 311.471L124.128 270.392C122.84 267.834 123.338 264.739 125.362 262.715L133.751 254.326C135.67 252.407 136.227 249.514 135.157 247.02L110.675 189.923C109.776 187.827 110.244 185.396 111.856 183.783V183.783C113.439 182.201 115.813 181.718 117.888 182.557L119.255 183.109C121.724 184.107 124.55 183.533 126.434 181.65L128.863 179.22C130.825 177.258 133.799 176.724 136.321 177.88L197.442 205.907C199.207 206.716 201.289 206.342 202.661 204.97V204.97C203.95 203.681 204.366 201.758 203.725 200.053L196.308 180.317C194.731 176.119 197.685 171.598 202.163 171.357L205.616 171.171C207.25 171.083 208.794 170.395 209.951 169.238L225.285 153.903C227.168 152.02 227.743 149.194 226.745 146.725L187.493 49.6227C185.327 44.2642 190.571 38.8905 195.981 40.9259L289.032 75.9358" stroke="#4F46BA" stroke-width="2.84366" stroke-linecap="round" stroke-linejoin="round"/>
<defs>
<linearGradient id="paint0_linear_0_479" x1="108.354" y1="109.07" x2="264.524" y2="265.24" gradientUnits="userSpaceOnUse">
<stop stop-color="#4F46BA" stop-opacity="0.21"/>
<stop offset="1" stop-color="white" stop-opacity="0"/>
</linearGradient>
</defs>
</svg>
